<mxfile host="app.diagrams.net" modified="2021-07-14T08:02:27.184Z" agent="5.0 (Macintosh; Intel Mac OS X 10_15_7) AppleWebKit/537.36 (KHTML, like Gecko) Chrome/91.0.4472.114 Safari/537.36" etag="BW5l-icumIFb6G1R1y7m" version="14.6.13" type="github">
  <diagram name="Page-1" id="c4acf3e9-155e-7222-9cf6-157b1a14988f">
    <mxGraphModel dx="949" dy="578" grid="1" gridSize="10" guides="1" tooltips="1" connect="1" arrows="1" fold="1" page="1" pageScale="1" pageWidth="850" pageHeight="1100" background="none" math="0" shadow="0">
      <root>
        <mxCell id="0" />
        <mxCell id="1" parent="0" />
        <mxCell id="mXOrw6EBEiyoI1CK4xS1-1" value="评估类" style="swimlane;fontStyle=1;align=center;verticalAlign=top;childLayout=stackLayout;horizontal=1;startSize=26;horizontalStack=0;resizeParent=1;resizeParentMax=0;resizeLast=0;collapsible=1;marginBottom=0;" vertex="1" parent="1">
          <mxGeometry x="265" y="90" width="205" height="290" as="geometry" />
        </mxCell>
        <mxCell id="mXOrw6EBEiyoI1CK4xS1-2" value="- 问卷id&#xa;- 报告id&#xa;+ 名称&#xa;+ 开始时间&#xa;+ 结束时间&#xa;+ 发放时间&#xa;+ 状态：编辑/发布&#xa;+ 操作人&#xa;&#xa;&#xa;" style="text;strokeColor=none;fillColor=none;align=left;verticalAlign=top;spacingLeft=4;spacingRight=4;overflow=hidden;rotatable=0;points=[[0,0.5],[1,0.5]];portConstraint=eastwest;" vertex="1" parent="mXOrw6EBEiyoI1CK4xS1-1">
          <mxGeometry y="26" width="205" height="154" as="geometry" />
        </mxCell>
        <mxCell id="mXOrw6EBEiyoI1CK4xS1-3" value="" style="line;strokeWidth=1;fillColor=none;align=left;verticalAlign=middle;spacingTop=-1;spacingLeft=3;spacingRight=3;rotatable=0;labelPosition=right;points=[];portConstraint=eastwest;" vertex="1" parent="mXOrw6EBEiyoI1CK4xS1-1">
          <mxGeometry y="180" width="205" height="8" as="geometry" />
        </mxCell>
        <mxCell id="mXOrw6EBEiyoI1CK4xS1-4" value="+ 发布评估()&#xa;+ 编辑评估()" style="text;strokeColor=none;fillColor=none;align=left;verticalAlign=top;spacingLeft=4;spacingRight=4;overflow=hidden;rotatable=0;points=[[0,0.5],[1,0.5]];portConstraint=eastwest;" vertex="1" parent="mXOrw6EBEiyoI1CK4xS1-1">
          <mxGeometry y="188" width="205" height="102" as="geometry" />
        </mxCell>
        <mxCell id="mXOrw6EBEiyoI1CK4xS1-5" value="参评人员类" style="swimlane;fontStyle=1;align=center;verticalAlign=top;childLayout=stackLayout;horizontal=1;startSize=26;horizontalStack=0;resizeParent=1;resizeParentMax=0;resizeLast=0;collapsible=1;marginBottom=0;" vertex="1" parent="1">
          <mxGeometry x="600" y="120" width="210" height="200" as="geometry" />
        </mxCell>
        <mxCell id="mXOrw6EBEiyoI1CK4xS1-6" value="+ 身份：参评人/上级/同级/下级&#xa;- 部门id&#xa;- 评估id&#xa;- 问卷id&#xa;- bp的id&#xa;&#xa;&#xa;" style="text;strokeColor=none;fillColor=none;align=left;verticalAlign=top;spacingLeft=4;spacingRight=4;overflow=hidden;rotatable=0;points=[[0,0.5],[1,0.5]];portConstraint=eastwest;" vertex="1" parent="mXOrw6EBEiyoI1CK4xS1-5">
          <mxGeometry y="26" width="210" height="114" as="geometry" />
        </mxCell>
        <mxCell id="mXOrw6EBEiyoI1CK4xS1-7" value="" style="line;strokeWidth=1;fillColor=none;align=left;verticalAlign=middle;spacingTop=-1;spacingLeft=3;spacingRight=3;rotatable=0;labelPosition=right;points=[];portConstraint=eastwest;" vertex="1" parent="mXOrw6EBEiyoI1CK4xS1-5">
          <mxGeometry y="140" width="210" height="8" as="geometry" />
        </mxCell>
        <mxCell id="mXOrw6EBEiyoI1CK4xS1-8" value="+ 导入()&#xa;+ 导出()&#xa;&#xa;" style="text;strokeColor=none;fillColor=none;align=left;verticalAlign=top;spacingLeft=4;spacingRight=4;overflow=hidden;rotatable=0;points=[[0,0.5],[1,0.5]];portConstraint=eastwest;" vertex="1" parent="mXOrw6EBEiyoI1CK4xS1-5">
          <mxGeometry y="148" width="210" height="52" as="geometry" />
        </mxCell>
        <mxCell id="mXOrw6EBEiyoI1CK4xS1-9" style="edgeStyle=orthogonalEdgeStyle;rounded=0;orthogonalLoop=1;jettySize=auto;html=1;entryX=1.005;entryY=0.577;entryDx=0;entryDy=0;entryPerimeter=0;dashed=1;dashPattern=1 2;" edge="1" parent="1" source="mXOrw6EBEiyoI1CK4xS1-6" target="mXOrw6EBEiyoI1CK4xS1-2">
          <mxGeometry relative="1" as="geometry" />
        </mxCell>
        <mxCell id="mXOrw6EBEiyoI1CK4xS1-19" style="edgeStyle=orthogonalEdgeStyle;rounded=0;orthogonalLoop=1;jettySize=auto;html=1;dashed=1;dashPattern=1 2;" edge="1" parent="1" source="mXOrw6EBEiyoI1CK4xS1-10" target="mXOrw6EBEiyoI1CK4xS1-2">
          <mxGeometry relative="1" as="geometry" />
        </mxCell>
        <mxCell id="mXOrw6EBEiyoI1CK4xS1-10" value="报告类" style="swimlane;fontStyle=1;align=center;verticalAlign=top;childLayout=stackLayout;horizontal=1;startSize=26;horizontalStack=0;resizeParent=1;resizeParentMax=0;resizeLast=0;collapsible=1;marginBottom=0;" vertex="1" parent="1">
          <mxGeometry x="30" y="200" width="160" height="86" as="geometry" />
        </mxCell>
        <mxCell id="mXOrw6EBEiyoI1CK4xS1-11" value="+ field: type" style="text;strokeColor=none;fillColor=none;align=left;verticalAlign=top;spacingLeft=4;spacingRight=4;overflow=hidden;rotatable=0;points=[[0,0.5],[1,0.5]];portConstraint=eastwest;" vertex="1" parent="mXOrw6EBEiyoI1CK4xS1-10">
          <mxGeometry y="26" width="160" height="26" as="geometry" />
        </mxCell>
        <mxCell id="mXOrw6EBEiyoI1CK4xS1-12" value="" style="line;strokeWidth=1;fillColor=none;align=left;verticalAlign=middle;spacingTop=-1;spacingLeft=3;spacingRight=3;rotatable=0;labelPosition=right;points=[];portConstraint=eastwest;" vertex="1" parent="mXOrw6EBEiyoI1CK4xS1-10">
          <mxGeometry y="52" width="160" height="8" as="geometry" />
        </mxCell>
        <mxCell id="mXOrw6EBEiyoI1CK4xS1-13" value="+ method(type): type" style="text;strokeColor=none;fillColor=none;align=left;verticalAlign=top;spacingLeft=4;spacingRight=4;overflow=hidden;rotatable=0;points=[[0,0.5],[1,0.5]];portConstraint=eastwest;" vertex="1" parent="mXOrw6EBEiyoI1CK4xS1-10">
          <mxGeometry y="60" width="160" height="26" as="geometry" />
        </mxCell>
        <mxCell id="mXOrw6EBEiyoI1CK4xS1-14" value="问卷类" style="swimlane;fontStyle=1;align=center;verticalAlign=top;childLayout=stackLayout;horizontal=1;startSize=26;horizontalStack=0;resizeParent=1;resizeParentMax=0;resizeLast=0;collapsible=1;marginBottom=0;" vertex="1" parent="1">
          <mxGeometry x="570" y="440" width="220" height="280" as="geometry" />
        </mxCell>
        <mxCell id="mXOrw6EBEiyoI1CK4xS1-15" value="+ 提交时间&#xa;- 提交用户id&#xa;- 提交人身份&#xa;+ 状态： 未提交/已提交&#xa;- 被评用户id&#xa;- 被评用户部门id&#xa;+ 问卷内容&#xa;&#xa;&#xa;&#xa;" style="text;strokeColor=none;fillColor=none;align=left;verticalAlign=top;spacingLeft=4;spacingRight=4;overflow=hidden;rotatable=0;points=[[0,0.5],[1,0.5]];portConstraint=eastwest;" vertex="1" parent="mXOrw6EBEiyoI1CK4xS1-14">
          <mxGeometry y="26" width="220" height="164" as="geometry" />
        </mxCell>
        <mxCell id="mXOrw6EBEiyoI1CK4xS1-16" value="" style="line;strokeWidth=1;fillColor=none;align=left;verticalAlign=middle;spacingTop=-1;spacingLeft=3;spacingRight=3;rotatable=0;labelPosition=right;points=[];portConstraint=eastwest;" vertex="1" parent="mXOrw6EBEiyoI1CK4xS1-14">
          <mxGeometry y="190" width="220" height="8" as="geometry" />
        </mxCell>
        <mxCell id="mXOrw6EBEiyoI1CK4xS1-17" value="+ 下载excel()&#xa;&#xa;&#xa;&#xa;" style="text;strokeColor=none;fillColor=none;align=left;verticalAlign=top;spacingLeft=4;spacingRight=4;overflow=hidden;rotatable=0;points=[[0,0.5],[1,0.5]];portConstraint=eastwest;" vertex="1" parent="mXOrw6EBEiyoI1CK4xS1-14">
          <mxGeometry y="198" width="220" height="82" as="geometry" />
        </mxCell>
        <mxCell id="mXOrw6EBEiyoI1CK4xS1-18" style="edgeStyle=orthogonalEdgeStyle;rounded=0;orthogonalLoop=1;jettySize=auto;html=1;dashed=1;dashPattern=1 2;" edge="1" parent="1" source="mXOrw6EBEiyoI1CK4xS1-15" target="mXOrw6EBEiyoI1CK4xS1-4">
          <mxGeometry relative="1" as="geometry" />
        </mxCell>
      </root>
    </mxGraphModel>
  </diagram>
</mxfile>
